<svg width="143" height="50" viewBox="0 0 143 50" fill="none" xmlns="http://www.w3.org/2000/svg">
<path d="M111.454 22.2108C112.181 18.0793 114.877 14.0773 117.552 14.0773C117.552 14.0773 120.505 14.0773 119.2 20.0426C118.964 21.1429 118.622 22.2324 118.173 23.2788C117.798 23.2464 117.413 23.3004 117.049 23.4298C116.685 23.5592 116.354 23.7642 116.065 24.0339C115.733 24.3683 115.519 24.8106 115.476 25.2636C115.38 25.8353 115.476 26.4179 115.744 26.9033C115.016 27.7123 114.021 28.2193 112.973 28.3272C111.058 28.3272 110.715 26.3316 111.454 22.2001V22.2108ZM13.7592 1.45626C12.4967 2.06034 11.17 2.48104 9.82186 2.69679C9.66138 2.72915 9.51159 2.81545 9.3832 2.92332C9.25481 3.03119 9.15851 3.17143 9.09432 3.33323C8.90173 3.82945 8.0351 6.29972 7.78902 6.94695C7.71412 7.14112 7.57503 7.30293 7.40384 7.42159C7.23266 7.54025 7.02937 7.59418 6.83679 7.57261C5.92735 7.50788 2.47151 7.05482 2.01145 7.02246C1.82956 7.01167 1.65838 7.05482 1.49789 7.14112C1.3374 7.22742 1.19831 7.36765 1.11272 7.52946C0.449366 8.94258 0.0641952 10.4636 0 11.9954C0.0213984 12.1787 0.0962928 12.3513 0.213984 12.4916C0.331675 12.6318 0.492163 12.7181 0.674049 12.7505C1.02712 12.8152 4.12989 13.279 4.48296 13.3222C4.60065 13.3438 4.71835 13.3869 4.81464 13.4624C4.91093 13.5271 4.99653 13.6242 5.06072 13.7321C5.12492 13.84 5.15701 13.9586 5.16771 14.0881C5.17841 14.2175 5.16771 14.347 5.12492 14.4656C1.76537 25.2097 1.72257 32.2537 10.8811 32.2537C18.4989 32.2537 24.8542 22.5345 28.1068 13.2683C28.7487 13.8615 29.3479 14.4872 29.9043 15.156C30.0968 15.4257 30.1824 15.7601 30.1717 16.1053C30.161 16.4505 30.0433 16.7849 29.8294 17.0761C27.7216 19.9671 20.3178 31.0995 30.0005 32.2537C33.5206 32.6637 36.6768 30.5062 39.3516 27.3779C39.4265 29.4383 40.4109 32.0919 44.9794 32.0919C48.8953 32.0919 51.7413 29.0284 53.5602 26.1374C53.4853 26.3963 51.859 32.0919 56.5774 32.0919C58.9419 32.0919 61.5846 30.2257 63.7565 28.1222C63.5639 28.8018 63.3713 29.4922 63.1681 30.1934C63.0718 30.5062 63.1039 30.8406 63.2323 31.1211C63.3713 31.4015 63.6067 31.6065 63.9063 31.7144C65.4577 32.3185 67.2017 32.2753 68.7958 31.5849C68.9777 31.4986 69.1275 31.38 69.2559 31.229C69.3843 31.0779 69.4806 30.8945 69.5234 30.7112C69.8337 29.5893 70.6254 26.8601 71.8451 23.063H71.8879C72.455 28.2301 75.2368 32.0919 80.2547 32.0919C83.9031 32.0919 86.9952 29.9129 89.5844 26.612C89.9696 29.9884 91.6386 32.2645 95.4475 32.2645C99.2565 32.2645 102.22 30.0531 104.809 26.7415C105.355 30.4523 107.345 32.2645 111.539 32.2645C114.588 32.189 117.606 31.1103 120.109 29.1794C120.109 29.1686 120.098 29.1686 120.098 29.1578C119.671 28.1977 119.489 27.1298 119.553 26.0403C119.66 24.3791 120.355 22.7826 121.511 21.5313C122.666 20.2799 124.196 19.4925 125.823 19.2875H125.865C125.908 18.9747 125.94 18.6726 125.962 18.3814C126.465 10.1831 118.718 10.1831 118.718 10.1831C111.347 10.1831 105.462 16.0406 104.756 22.2324C102.734 25.4146 100.348 27.9389 97.8121 28.3164C93.6287 28.9529 95.1694 21.7254 97.8442 14.2067C97.8976 14.0557 98.0046 13.9155 98.133 13.8184C98.2614 13.7213 98.4219 13.6674 98.5824 13.6674C100.498 13.6674 102.423 13.5271 104.349 13.2359C104.478 13.2143 104.595 13.1604 104.702 13.0849C104.809 13.0094 104.895 12.9015 104.948 12.7828C105.334 11.9522 105.537 11.0569 105.58 10.1507C105.58 10.0429 105.569 9.94579 105.537 9.84871C105.505 9.75162 105.451 9.66533 105.376 9.6006C105.301 9.53588 105.227 9.48194 105.13 9.43879C105.034 9.39565 104.938 9.38486 104.841 9.39565C103.493 9.49273 102.081 9.51431 100.679 9.50352C100.562 9.50352 100.444 9.47116 100.337 9.41722C100.23 9.36328 100.144 9.27699 100.091 9.1799C100.027 9.08282 99.9947 8.96416 99.984 8.8455C99.984 8.72684 99.9947 8.60818 100.048 8.48952C100.605 6.97931 101.257 5.50146 101.974 4.04519C102.038 3.91574 102.07 3.77551 102.081 3.64606C102.092 3.51662 102.081 3.3656 102.028 3.24694C101.985 3.11749 101.91 3.00962 101.814 2.90175C101.717 2.80466 101.61 2.72915 101.482 2.686C99.984 2.06034 98.3042 1.92011 96.6565 2.27609C96.4961 2.30845 96.3463 2.38396 96.2179 2.48104C96.0895 2.57813 95.9825 2.71836 95.9076 2.86938C94.9126 4.72478 94.078 6.66648 93.4254 8.66211C93.3612 8.82392 93.2542 8.96416 93.1151 9.06124C92.976 9.15833 92.8048 9.20148 92.6337 9.19069C91.874 9.13675 91.2856 9.08282 90.9111 9.06124C90.7613 9.03967 90.6115 9.07203 90.4724 9.14754C90.3333 9.22305 90.2263 9.33092 90.1514 9.47116C89.7021 10.3341 89.5095 11.305 89.6058 12.2435C89.6165 12.3945 89.6807 12.5455 89.777 12.6534C89.8733 12.7613 90.0123 12.8368 90.1621 12.8691C90.4617 12.9339 90.7613 12.9878 91.0502 13.0417C91.1465 13.0633 91.2428 13.0957 91.3283 13.1496C91.4139 13.2035 91.4781 13.279 91.5316 13.3653C91.5851 13.4516 91.6172 13.5487 91.6279 13.6566C91.6279 13.7645 91.6279 13.8723 91.5958 13.9694C90.7078 16.8928 90.0444 19.8592 89.6058 22.8473C87.5194 26.159 85.2405 27.7663 82.6406 28.1546C79.7411 28.5861 77.6655 25.3931 77.5799 20.9164C79.8053 19.8269 81.8168 18.3167 83.5179 16.4721C85.2191 14.6274 86.5565 12.4808 87.4659 10.1507C87.5622 9.91343 87.5622 9.64375 87.4659 9.40643C87.3696 9.16911 87.2092 8.98573 86.9845 8.88865C85.4224 8.2522 83.6463 8.23063 81.9879 8.82392C81.8168 8.87786 81.6563 8.97494 81.5279 9.11518C81.3995 9.24462 81.3032 9.41722 81.2604 9.58982C79.4629 15.9327 75.087 17.5616 74.2203 17.8205C74.1561 17.842 73.8352 17.9283 73.5784 17.993C74.8837 13.7321 78.7675 4.67085 79.035 4.07755C79.0992 3.91574 79.1313 3.75394 79.1206 3.58134C79.1099 3.40874 79.0671 3.25772 78.9815 3.11749C78.9066 2.97726 78.7889 2.8586 78.6498 2.7723C78.5107 2.686 78.3609 2.64285 78.1897 2.63207C77.1198 2.75073 76.0927 3.16064 75.2047 3.82945C74.3594 4.2933 73.4607 4.6277 72.5299 4.80029C72.4015 4.82187 72.2731 4.88659 72.1768 4.98368C72.0805 5.08076 71.9949 5.18863 71.9521 5.31808C71.8986 5.43674 71.8665 5.5554 71.8344 5.67406C71.8023 5.73878 71.7916 5.79272 71.7595 5.84665C69.2773 11.5962 67.0947 17.4645 65.2116 23.4082C63.2323 26.1374 61.178 27.8957 59.7336 27.8957C57.3156 27.8957 60.076 20.6791 60.9961 18.4353C61.0817 18.2304 61.0924 18.0146 61.0389 17.8097C60.9854 17.6047 60.857 17.4321 60.6965 17.3135C59.3912 16.4613 57.7864 16.1484 56.2029 16.4181C56.021 16.4505 55.8391 16.526 55.6893 16.6446C55.5395 16.7633 55.4111 16.9143 55.3362 17.0869C48.3818 31.8115 45.5572 29.0284 46.1349 24.6164C46.6913 20.1397 51.3882 14.2067 55.6358 14.2067C58.011 14.2283 60.3007 14.8863 62.28 16.0945C62.4512 16.2024 62.6652 16.2455 62.8685 16.2347C63.0718 16.2239 63.2751 16.1377 63.4569 16.0082C63.917 15.6522 64.3343 15.2315 64.6766 14.7677C64.8157 14.5627 64.9013 14.3146 64.9013 14.0665C64.9013 13.8184 64.8371 13.5811 64.7087 13.3869C63.9384 12.2543 61.8414 10.0645 56.8662 10.0645C50.6821 10.0645 41.6734 15.4365 39.8117 23.6024C32.1404 33.5266 29.2623 27.5182 34.216 20.7114C36.848 17.0977 37.8003 15.6199 33.8951 12.319C30.0005 9.00731 31.1133 8.80235 31.2417 6.83908C31.3593 4.8758 27.7216 3.02041 25.999 7.35686C25.6995 8.07961 25.5925 8.85628 25.6781 9.6006C25.7744 10.3557 26.0632 11.0461 26.5233 11.6286C24.2551 17.7018 18.4454 27.5613 13.2242 28.3488C9.03012 28.9852 11.0844 21.3802 13.7485 13.8723C13.802 13.7213 13.909 13.5811 14.0373 13.484C14.1764 13.3869 14.3369 13.333 14.4974 13.333C16.4233 13.333 18.3491 13.1927 20.275 12.9015C20.3927 12.8799 20.5104 12.826 20.6174 12.7505C20.7243 12.675 20.7992 12.5671 20.8527 12.4484C21.377 11.2295 21.7408 9.95658 21.9334 8.66211C21.9334 8.55424 21.9227 8.45716 21.8906 8.36007C21.8585 8.26299 21.805 8.17669 21.7301 8.11197C21.6552 8.04724 21.5803 7.99331 21.484 7.95016C21.3877 7.9178 21.2914 7.89622 21.1951 7.90701C19.8577 7.98252 18.4347 8.01488 17.0331 8.01488C16.9154 8.01488 16.7977 7.98252 16.7014 7.92858C16.5945 7.87465 16.5089 7.78835 16.4554 7.69127C16.3912 7.59418 16.3591 7.47552 16.3484 7.35686C16.3484 7.2382 16.3591 7.11954 16.4126 7.00088C17.0545 5.42595 18.103 2.53498 18.4026 1.81224C18.4775 1.61807 18.5203 1.41311 18.5096 1.20815C18.4989 1.0032 18.4454 0.809028 18.3384 0.636432C18.2421 0.463837 18.103 0.323603 17.9319 0.215731C17.7607 0.107859 17.5788 0.053923 17.3755 0.0323486H17.2685C16.006 0.215731 14.797 0.711943 13.7378 1.49941" fill="white"/>
<path d="M121.628 26.0295C121.575 26.968 121.789 27.8742 122.249 28.6508C122.709 29.4275 123.394 30.0316 124.218 30.3876C125.042 30.7436 125.962 30.8406 126.871 30.6573C127.781 30.4739 128.626 30.0208 129.321 29.3628C130.006 28.7048 130.498 27.8634 130.733 26.9465C130.969 26.0295 130.937 25.0803 130.637 24.2173C130.338 23.3543 129.792 22.6208 129.064 22.103C128.337 21.5852 127.46 21.3047 126.55 21.3047C125.94 21.3047 125.33 21.4234 124.763 21.6607C124.186 21.898 123.661 22.2432 123.201 22.6855C122.741 23.1278 122.367 23.6456 122.11 24.2173C121.842 24.789 121.682 25.4039 121.65 26.0295" fill="#1DC763"/>
<path d="M111.149 49.2942C107.875 49.2942 105.531 47.126 105.531 43.577C105.531 40.028 107.832 37.8813 111.149 37.8813C114.465 37.8813 116.723 40.0064 116.723 43.4583C116.723 43.7603 116.701 44.0732 116.659 44.3752H109.351C109.426 45.6697 110.121 46.1875 110.988 46.1875C111.737 46.1875 112.154 45.7668 112.368 45.3137H116.487C115.974 47.6006 113.909 49.305 111.149 49.305V49.2942ZM109.372 42.4767H112.785C112.785 41.4842 112.015 40.9449 111.127 40.9449C110.239 40.9449 109.554 41.4627 109.372 42.4767V42.4767Z" fill="#1DC763"/>
<path d="M122.393 37.8705C123.848 37.8705 124.993 38.5286 125.603 39.5426V34.4618H129.487V49.1648H125.603V47.6114C125.036 48.6038 123.923 49.305 122.372 49.305C119.751 49.305 117.664 47.1368 117.664 43.5878C117.664 40.0388 119.751 37.8921 122.393 37.8921V37.8705ZM123.613 41.2685C122.511 41.2685 121.602 42.0668 121.602 43.577C121.602 45.0872 122.511 45.8962 123.613 45.8962C124.715 45.8962 125.625 45.0872 125.625 43.577C125.625 42.0668 124.694 41.2685 123.613 41.2685Z" fill="#1DC763"/>
<path d="M143 49.154H139.116V47.5683C138.485 48.5175 137.319 49.2618 135.767 49.2618C133.21 49.2618 131.616 47.4388 131.616 44.4939V38.0216H135.457V43.9977C135.457 45.2922 136.185 46.0473 137.287 46.0473C138.389 46.0473 139.116 45.2922 139.116 43.9977V38.0216H143V49.1648V49.154Z" fill="#1DC763"/>
</svg>
